# xmcd
#
# Track frame offsets:
#	150
#	22111
#	45881
#	65628
#	80410
#	94569
#	113735
#	129643
#	148923
#	168138
#	186259
#	206522
#	223890
#	240246
#	256992
#	268189
#	296031
#
# Disc length: 3962 seconds
#
# Revision: 2
# Processed by: cddbd v1.5.2PL0 Copyright (c) Steve Scherf et al.
# Submitted via: audiograbber 1.83.01
#
DISCID=fb0f7811
DTITLE=Chartbuster - ESP482-05  Hits of 2003
DYEAR=2003
DGENRE=
TTITLE0=Shelton, Blake - Playboys of the Southwestern World
TTITLE1=Parton, Dolly - I'm Gone
TTITLE2=Chesney, Kenny - There Goes My Life
TTITLE3=Procter, Rachel - Days Like This
TTITLE4=Strart, Marty - If There Aint There Ought To Be
TTITLE5=Hill, Faith - When The Lights Go Down
TTITLE6=Emerick, Scotty and Toby Keith - I Can't Take You Anywhere
TTITLE7=Dalley, Amy - I Think Your Beautiful
TTITLE8=Wayne, Jimmy - I Love You This Much
TTITLE9=Hanson, Jennifer - Half A Heart Tatoo
TTITLE10=Atkins, Rodney - Honestly ( Write Me a List)
TTITLE11=Hanson, Jennifer - This Far Gone
TTITLE12=Travis, Randy - Three Wooden Crosses
TTITLE13=Tucker, Tanya - Old Weakness ( Coming on Strong )
TTITLE14=Stuart, Marty - Too Much Month ( At The End Of The Money)
TTITLE15=Morgan, Lorrie - Do You Still Want To Buy Me That Drink ( Frank )
TTITLE16=na - na
EXTD=
EXTT0=
EXTT1=
EXTT2=
EXTT3=
EXTT4=
EXTT5=
EXTT6=
EXTT7=
EXTT8=
EXTT9=
EXTT10=
EXTT11=
EXTT12=
EXTT13=
EXTT14=
EXTT15=
EXTT16=
PLAYORDER=
